<svg xmlns="http://www.w3.org/2000/svg" xmlns:xlink="http://www.w3.org/1999/xlink" width="500" zoomAndPan="magnify" viewBox="0 0 375 374.999991" height="500" preserveAspectRatio="xMidYMid meet" version="1.0"><defs><g/></defs><g fill="#2c479e" fill-opacity="0.302"><g transform="translate(124.02423, 255.498146)"><g><path d="M 18.875 -10.15625 C 19.46875 -10.101562 20.148438 -10.0625 20.921875 -10.03125 C 21.691406 -10.007812 22.613281 -10 23.6875 -10 C 29.925781 -10 34.550781 -11.570312 37.5625 -14.71875 C 40.570312 -17.863281 42.078125 -22.210938 42.078125 -27.765625 C 42.078125 -33.578125 40.632812 -37.972656 37.75 -40.953125 C 34.875 -43.941406 30.316406 -45.4375 24.078125 -45.4375 C 23.222656 -45.4375 22.34375 -45.421875 21.4375 -45.390625 C 20.53125 -45.367188 19.675781 -45.304688 18.875 -45.203125 Z M 54.953125 -27.765625 C 54.953125 -22.960938 54.207031 -18.773438 52.71875 -15.203125 C 51.226562 -11.628906 49.109375 -8.664062 46.359375 -6.3125 C 43.609375 -3.96875 40.257812 -2.207031 36.3125 -1.03125 C 32.375 0.132812 27.953125 0.71875 23.046875 0.71875 C 20.804688 0.71875 18.191406 0.625 15.203125 0.4375 C 12.210938 0.25 9.28125 -0.132812 6.40625 -0.71875 L 6.40625 -54.71875 C 9.28125 -55.25 12.273438 -55.609375 15.390625 -55.796875 C 18.515625 -55.984375 21.195312 -56.078125 23.4375 -56.078125 C 28.1875 -56.078125 32.492188 -55.539062 36.359375 -54.46875 C 40.222656 -53.40625 43.539062 -51.726562 46.3125 -49.4375 C 49.09375 -47.144531 51.226562 -44.210938 52.71875 -40.640625 C 54.207031 -37.066406 54.953125 -32.773438 54.953125 -27.765625 Z M 54.953125 -27.765625 "/></g></g></g><g fill="#2c479e" fill-opacity="0.302"><g transform="translate(182.978499, 255.498146)"><g><path d="M 44.953125 -21.125 C 44.953125 -17.8125 44.472656 -14.78125 43.515625 -12.03125 C 42.554688 -9.289062 41.171875 -6.945312 39.359375 -5 C 37.546875 -3.050781 35.375 -1.539062 32.84375 -0.46875 C 30.3125 0.59375 27.46875 1.125 24.3125 1.125 C 21.226562 1.125 18.414062 0.59375 15.875 -0.46875 C 13.34375 -1.539062 11.171875 -3.050781 9.359375 -5 C 7.546875 -6.945312 6.128906 -9.289062 5.109375 -12.03125 C 4.097656 -14.78125 3.59375 -17.8125 3.59375 -21.125 C 3.59375 -24.425781 4.113281 -27.4375 5.15625 -30.15625 C 6.195312 -32.875 7.632812 -35.191406 9.46875 -37.109375 C 11.3125 -39.035156 13.5 -40.53125 16.03125 -41.59375 C 18.570312 -42.664062 21.332031 -43.203125 24.3125 -43.203125 C 27.351562 -43.203125 30.140625 -42.664062 32.671875 -41.59375 C 35.210938 -40.53125 37.390625 -39.035156 39.203125 -37.109375 C 41.015625 -35.191406 42.425781 -32.875 43.4375 -30.15625 C 44.445312 -27.4375 44.953125 -24.425781 44.953125 -21.125 Z M 32.796875 -21.125 C 32.796875 -24.800781 32.0625 -27.691406 30.59375 -29.796875 C 29.132812 -31.898438 27.039062 -32.953125 24.3125 -32.953125 C 21.59375 -32.953125 19.488281 -31.898438 18 -29.796875 C 16.507812 -27.691406 15.765625 -24.800781 15.765625 -21.125 C 15.765625 -17.4375 16.507812 -14.515625 18 -12.359375 C 19.488281 -10.203125 21.59375 -9.125 24.3125 -9.125 C 27.039062 -9.125 29.132812 -10.203125 30.59375 -12.359375 C 32.0625 -14.515625 32.796875 -17.4375 32.796875 -21.125 Z M 32.796875 -21.125 "/></g></g></g><g fill="#2c479e" fill-opacity="0.302"><g transform="translate(231.533786, 255.498146)"><g><path d="M 1.6875 14.796875 C 0.9375 14.796875 -0.171875 14.710938 -1.640625 14.546875 C -3.109375 14.390625 -4.484375 14.101562 -5.765625 13.6875 L -4.15625 4 C -3.351562 4.269531 -2.617188 4.457031 -1.953125 4.5625 C -1.285156 4.664062 -0.445312 4.71875 0.5625 4.71875 C 2.425781 4.71875 3.726562 4.15625 4.46875 3.03125 C 5.21875 1.914062 5.59375 0.289062 5.59375 -1.84375 L 5.59375 -42.078125 L 17.515625 -42.078125 L 17.515625 -1.515625 C 17.515625 4.023438 16.15625 8.128906 13.4375 10.796875 C 10.71875 13.460938 6.800781 14.796875 1.6875 14.796875 Z M 18.640625 -54.234375 C 18.640625 -52.046875 17.929688 -50.328125 16.515625 -49.078125 C 15.109375 -47.828125 13.441406 -47.203125 11.515625 -47.203125 C 9.597656 -47.203125 7.929688 -47.828125 6.515625 -49.078125 C 5.109375 -50.328125 4.40625 -52.046875 4.40625 -54.234375 C 4.40625 -56.421875 5.109375 -58.140625 6.515625 -59.390625 C 7.929688 -60.648438 9.597656 -61.28125 11.515625 -61.28125 C 13.441406 -61.28125 15.109375 -60.648438 16.515625 -59.390625 C 17.929688 -58.140625 18.640625 -56.421875 18.640625 -54.234375 Z M 18.640625 -54.234375 "/></g></g></g><g fill="#2c479e" fill-opacity="0.302"><g transform="translate(254.651536, 255.498146)"><g><path d="M 44.953125 -21.125 C 44.953125 -17.8125 44.472656 -14.78125 43.515625 -12.03125 C 42.554688 -9.289062 41.171875 -6.945312 39.359375 -5 C 37.546875 -3.050781 35.375 -1.539062 32.84375 -0.46875 C 30.3125 0.59375 27.46875 1.125 24.3125 1.125 C 21.226562 1.125 18.414062 0.59375 15.875 -0.46875 C 13.34375 -1.539062 11.171875 -3.050781 9.359375 -5 C 7.546875 -6.945312 6.128906 -9.289062 5.109375 -12.03125 C 4.097656 -14.78125 3.59375 -17.8125 3.59375 -21.125 C 3.59375 -24.425781 4.113281 -27.4375 5.15625 -30.15625 C 6.195312 -32.875 7.632812 -35.191406 9.46875 -37.109375 C 11.3125 -39.035156 13.5 -40.53125 16.03125 -41.59375 C 18.570312 -42.664062 21.332031 -43.203125 24.3125 -43.203125 C 27.351562 -43.203125 30.140625 -42.664062 32.671875 -41.59375 C 35.210938 -40.53125 37.390625 -39.035156 39.203125 -37.109375 C 41.015625 -35.191406 42.425781 -32.875 43.4375 -30.15625 C 44.445312 -27.4375 44.953125 -24.425781 44.953125 -21.125 Z M 32.796875 -21.125 C 32.796875 -24.800781 32.0625 -27.691406 30.59375 -29.796875 C 29.132812 -31.898438 27.039062 -32.953125 24.3125 -32.953125 C 21.59375 -32.953125 19.488281 -31.898438 18 -29.796875 C 16.507812 -27.691406 15.765625 -24.800781 15.765625 -21.125 C 15.765625 -17.4375 16.507812 -14.515625 18 -12.359375 C 19.488281 -10.203125 21.59375 -9.125 24.3125 -9.125 C 27.039062 -9.125 29.132812 -10.203125 30.59375 -12.359375 C 32.0625 -14.515625 32.796875 -17.4375 32.796875 -21.125 Z M 32.796875 -21.125 "/></g></g></g><g fill="#2c479e" fill-opacity="0.302"><g transform="translate(303.206823, 255.498146)"><g><path d="M 25.515625 -40.875 C 23.441406 -38.15625 21.226562 -35.195312 18.875 -32 C 16.53125 -28.800781 14.554688 -25.519531 12.953125 -22.15625 L 25.515625 -22.15625 Z M 37.203125 -55.4375 L 37.203125 -22.15625 L 43.125 -22.15625 L 43.125 -12.40625 L 37.203125 -12.40625 L 37.203125 0 L 25.515625 0 L 25.515625 -12.40625 L 1.59375 -12.40625 L 1.59375 -21.125 C 2.769531 -23.46875 4.238281 -26.117188 6 -29.078125 C 7.757812 -32.035156 9.71875 -35.070312 11.875 -38.1875 C 14.039062 -41.3125 16.320312 -44.367188 18.71875 -47.359375 C 21.113281 -50.347656 23.515625 -53.039062 25.921875 -55.4375 Z M 37.203125 -55.4375 "/></g></g></g><g fill="#2c479e" fill-opacity="0.502"><g transform="translate(121.266507, 252.740434)"><g><path d="M 18.875 -10.15625 C 19.46875 -10.101562 20.148438 -10.0625 20.921875 -10.03125 C 21.691406 -10.007812 22.613281 -10 23.6875 -10 C 29.925781 -10 34.550781 -11.570312 37.5625 -14.71875 C 40.570312 -17.863281 42.078125 -22.210938 42.078125 -27.765625 C 42.078125 -33.578125 40.632812 -37.972656 37.75 -40.953125 C 34.875 -43.941406 30.316406 -45.4375 24.078125 -45.4375 C 23.222656 -45.4375 22.34375 -45.421875 21.4375 -45.390625 C 20.53125 -45.367188 19.675781 -45.304688 18.875 -45.203125 Z M 54.953125 -27.765625 C 54.953125 -22.960938 54.207031 -18.773438 52.71875 -15.203125 C 51.226562 -11.628906 49.109375 -8.664062 46.359375 -6.3125 C 43.609375 -3.96875 40.257812 -2.207031 36.3125 -1.03125 C 32.375 0.132812 27.953125 0.71875 23.046875 0.71875 C 20.804688 0.71875 18.191406 0.625 15.203125 0.4375 C 12.210938 0.25 9.28125 -0.132812 6.40625 -0.71875 L 6.40625 -54.71875 C 9.28125 -55.25 12.273438 -55.609375 15.390625 -55.796875 C 18.515625 -55.984375 21.195312 -56.078125 23.4375 -56.078125 C 28.1875 -56.078125 32.492188 -55.539062 36.359375 -54.46875 C 40.222656 -53.40625 43.539062 -51.726562 46.3125 -49.4375 C 49.09375 -47.144531 51.226562 -44.210938 52.71875 -40.640625 C 54.207031 -37.066406 54.953125 -32.773438 54.953125 -27.765625 Z M 54.953125 -27.765625 "/></g></g></g><g fill="#2c479e" fill-opacity="0.502"><g transform="translate(180.220777, 252.740434)"><g><path d="M 44.953125 -21.125 C 44.953125 -17.8125 44.472656 -14.78125 43.515625 -12.03125 C 42.554688 -9.289062 41.171875 -6.945312 39.359375 -5 C 37.546875 -3.050781 35.375 -1.539062 32.84375 -0.46875 C 30.3125 0.59375 27.46875 1.125 24.3125 1.125 C 21.226562 1.125 18.414062 0.59375 15.875 -0.46875 C 13.34375 -1.539062 11.171875 -3.050781 9.359375 -5 C 7.546875 -6.945312 6.128906 -9.289062 5.109375 -12.03125 C 4.097656 -14.78125 3.59375 -17.8125 3.59375 -21.125 C 3.59375 -24.425781 4.113281 -27.4375 5.15625 -30.15625 C 6.195312 -32.875 7.632812 -35.191406 9.46875 -37.109375 C 11.3125 -39.035156 13.5 -40.53125 16.03125 -41.59375 C 18.570312 -42.664062 21.332031 -43.203125 24.3125 -43.203125 C 27.351562 -43.203125 30.140625 -42.664062 32.671875 -41.59375 C 35.210938 -40.53125 37.390625 -39.035156 39.203125 -37.109375 C 41.015625 -35.191406 42.425781 -32.875 43.4375 -30.15625 C 44.445312 -27.4375 44.953125 -24.425781 44.953125 -21.125 Z M 32.796875 -21.125 C 32.796875 -24.800781 32.0625 -27.691406 30.59375 -29.796875 C 29.132812 -31.898438 27.039062 -32.953125 24.3125 -32.953125 C 21.59375 -32.953125 19.488281 -31.898438 18 -29.796875 C 16.507812 -27.691406 15.765625 -24.800781 15.765625 -21.125 C 15.765625 -17.4375 16.507812 -14.515625 18 -12.359375 C 19.488281 -10.203125 21.59375 -9.125 24.3125 -9.125 C 27.039062 -9.125 29.132812 -10.203125 30.59375 -12.359375 C 32.0625 -14.515625 32.796875 -17.4375 32.796875 -21.125 Z M 32.796875 -21.125 "/></g></g></g><g fill="#2c479e" fill-opacity="0.502"><g transform="translate(228.776064, 252.740434)"><g><path d="M 1.6875 14.796875 C 0.9375 14.796875 -0.171875 14.710938 -1.640625 14.546875 C -3.109375 14.390625 -4.484375 14.101562 -5.765625 13.6875 L -4.15625 4 C -3.351562 4.269531 -2.617188 4.457031 -1.953125 4.5625 C -1.285156 4.664062 -0.445312 4.71875 0.5625 4.71875 C 2.425781 4.71875 3.726562 4.15625 4.46875 3.03125 C 5.21875 1.914062 5.59375 0.289062 5.59375 -1.84375 L 5.59375 -42.078125 L 17.515625 -42.078125 L 17.515625 -1.515625 C 17.515625 4.023438 16.15625 8.128906 13.4375 10.796875 C 10.71875 13.460938 6.800781 14.796875 1.6875 14.796875 Z M 18.640625 -54.234375 C 18.640625 -52.046875 17.929688 -50.328125 16.515625 -49.078125 C 15.109375 -47.828125 13.441406 -47.203125 11.515625 -47.203125 C 9.597656 -47.203125 7.929688 -47.828125 6.515625 -49.078125 C 5.109375 -50.328125 4.40625 -52.046875 4.40625 -54.234375 C 4.40625 -56.421875 5.109375 -58.140625 6.515625 -59.390625 C 7.929688 -60.648438 9.597656 -61.28125 11.515625 -61.28125 C 13.441406 -61.28125 15.109375 -60.648438 16.515625 -59.390625 C 17.929688 -58.140625 18.640625 -56.421875 18.640625 -54.234375 Z M 18.640625 -54.234375 "/></g></g></g><g fill="#2c479e" fill-opacity="0.502"><g transform="translate(251.893814, 252.740434)"><g><path d="M 44.953125 -21.125 C 44.953125 -17.8125 44.472656 -14.78125 43.515625 -12.03125 C 42.554688 -9.289062 41.171875 -6.945312 39.359375 -5 C 37.546875 -3.050781 35.375 -1.539062 32.84375 -0.46875 C 30.3125 0.59375 27.46875 1.125 24.3125 1.125 C 21.226562 1.125 18.414062 0.59375 15.875 -0.46875 C 13.34375 -1.539062 11.171875 -3.050781 9.359375 -5 C 7.546875 -6.945312 6.128906 -9.289062 5.109375 -12.03125 C 4.097656 -14.78125 3.59375 -17.8125 3.59375 -21.125 C 3.59375 -24.425781 4.113281 -27.4375 5.15625 -30.15625 C 6.195312 -32.875 7.632812 -35.191406 9.46875 -37.109375 C 11.3125 -39.035156 13.5 -40.53125 16.03125 -41.59375 C 18.570312 -42.664062 21.332031 -43.203125 24.3125 -43.203125 C 27.351562 -43.203125 30.140625 -42.664062 32.671875 -41.59375 C 35.210938 -40.53125 37.390625 -39.035156 39.203125 -37.109375 C 41.015625 -35.191406 42.425781 -32.875 43.4375 -30.15625 C 44.445312 -27.4375 44.953125 -24.425781 44.953125 -21.125 Z M 32.796875 -21.125 C 32.796875 -24.800781 32.0625 -27.691406 30.59375 -29.796875 C 29.132812 -31.898438 27.039062 -32.953125 24.3125 -32.953125 C 21.59375 -32.953125 19.488281 -31.898438 18 -29.796875 C 16.507812 -27.691406 15.765625 -24.800781 15.765625 -21.125 C 15.765625 -17.4375 16.507812 -14.515625 18 -12.359375 C 19.488281 -10.203125 21.59375 -9.125 24.3125 -9.125 C 27.039062 -9.125 29.132812 -10.203125 30.59375 -12.359375 C 32.0625 -14.515625 32.796875 -17.4375 32.796875 -21.125 Z M 32.796875 -21.125 "/></g></g></g><g fill="#2c479e" fill-opacity="0.502"><g transform="translate(300.449101, 252.740434)"><g><path d="M 25.515625 -40.875 C 23.441406 -38.15625 21.226562 -35.195312 18.875 -32 C 16.53125 -28.800781 14.554688 -25.519531 12.953125 -22.15625 L 25.515625 -22.15625 Z M 37.203125 -55.4375 L 37.203125 -22.15625 L 43.125 -22.15625 L 43.125 -12.40625 L 37.203125 -12.40625 L 37.203125 0 L 25.515625 0 L 25.515625 -12.40625 L 1.59375 -12.40625 L 1.59375 -21.125 C 2.769531 -23.46875 4.238281 -26.117188 6 -29.078125 C 7.757812 -32.035156 9.71875 -35.070312 11.875 -38.1875 C 14.039062 -41.3125 16.320312 -44.367188 18.71875 -47.359375 C 21.113281 -50.347656 23.515625 -53.039062 25.921875 -55.4375 Z M 37.203125 -55.4375 "/></g></g></g><g fill="#ff8400" fill-opacity="1"><g transform="translate(118.508785, 249.982704)"><g><path d="M 18.875 -10.15625 C 19.46875 -10.101562 20.148438 -10.0625 20.921875 -10.03125 C 21.691406 -10.007812 22.613281 -10 23.6875 -10 C 29.925781 -10 34.550781 -11.570312 37.5625 -14.71875 C 40.570312 -17.863281 42.078125 -22.210938 42.078125 -27.765625 C 42.078125 -33.578125 40.632812 -37.972656 37.75 -40.953125 C 34.875 -43.941406 30.316406 -45.4375 24.078125 -45.4375 C 23.222656 -45.4375 22.34375 -45.421875 21.4375 -45.390625 C 20.53125 -45.367188 19.675781 -45.304688 18.875 -45.203125 Z M 54.953125 -27.765625 C 54.953125 -22.960938 54.207031 -18.773438 52.71875 -15.203125 C 51.226562 -11.628906 49.109375 -8.664062 46.359375 -6.3125 C 43.609375 -3.96875 40.257812 -2.207031 36.3125 -1.03125 C 32.375 0.132812 27.953125 0.71875 23.046875 0.71875 C 20.804688 0.71875 18.191406 0.625 15.203125 0.4375 C 12.210938 0.25 9.28125 -0.132812 6.40625 -0.71875 L 6.40625 -54.71875 C 9.28125 -55.25 12.273438 -55.609375 15.390625 -55.796875 C 18.515625 -55.984375 21.195312 -56.078125 23.4375 -56.078125 C 28.1875 -56.078125 32.492188 -55.539062 36.359375 -54.46875 C 40.222656 -53.40625 43.539062 -51.726562 46.3125 -49.4375 C 49.09375 -47.144531 51.226562 -44.210938 52.71875 -40.640625 C 54.207031 -37.066406 54.953125 -32.773438 54.953125 -27.765625 Z M 54.953125 -27.765625 "/></g></g></g><g fill="#ff8400" fill-opacity="1"><g transform="translate(177.463055, 249.982704)"><g><path d="M 44.953125 -21.125 C 44.953125 -17.8125 44.472656 -14.78125 43.515625 -12.03125 C 42.554688 -9.289062 41.171875 -6.945312 39.359375 -5 C 37.546875 -3.050781 35.375 -1.539062 32.84375 -0.46875 C 30.3125 0.59375 27.46875 1.125 24.3125 1.125 C 21.226562 1.125 18.414062 0.59375 15.875 -0.46875 C 13.34375 -1.539062 11.171875 -3.050781 9.359375 -5 C 7.546875 -6.945312 6.128906 -9.289062 5.109375 -12.03125 C 4.097656 -14.78125 3.59375 -17.8125 3.59375 -21.125 C 3.59375 -24.425781 4.113281 -27.4375 5.15625 -30.15625 C 6.195312 -32.875 7.632812 -35.191406 9.46875 -37.109375 C 11.3125 -39.035156 13.5 -40.53125 16.03125 -41.59375 C 18.570312 -42.664062 21.332031 -43.203125 24.3125 -43.203125 C 27.351562 -43.203125 30.140625 -42.664062 32.671875 -41.59375 C 35.210938 -40.53125 37.390625 -39.035156 39.203125 -37.109375 C 41.015625 -35.191406 42.425781 -32.875 43.4375 -30.15625 C 44.445312 -27.4375 44.953125 -24.425781 44.953125 -21.125 Z M 32.796875 -21.125 C 32.796875 -24.800781 32.0625 -27.691406 30.59375 -29.796875 C 29.132812 -31.898438 27.039062 -32.953125 24.3125 -32.953125 C 21.59375 -32.953125 19.488281 -31.898438 18 -29.796875 C 16.507812 -27.691406 15.765625 -24.800781 15.765625 -21.125 C 15.765625 -17.4375 16.507812 -14.515625 18 -12.359375 C 19.488281 -10.203125 21.59375 -9.125 24.3125 -9.125 C 27.039062 -9.125 29.132812 -10.203125 30.59375 -12.359375 C 32.0625 -14.515625 32.796875 -17.4375 32.796875 -21.125 Z M 32.796875 -21.125 "/></g></g></g><g fill="#ff8400" fill-opacity="1"><g transform="translate(226.018342, 249.982704)"><g><path d="M 1.6875 14.796875 C 0.9375 14.796875 -0.171875 14.710938 -1.640625 14.546875 C -3.109375 14.390625 -4.484375 14.101562 -5.765625 13.6875 L -4.15625 4 C -3.351562 4.269531 -2.617188 4.457031 -1.953125 4.5625 C -1.285156 4.664062 -0.445312 4.71875 0.5625 4.71875 C 2.425781 4.71875 3.726562 4.15625 4.46875 3.03125 C 5.21875 1.914062 5.59375 0.289062 5.59375 -1.84375 L 5.59375 -42.078125 L 17.515625 -42.078125 L 17.515625 -1.515625 C 17.515625 4.023438 16.15625 8.128906 13.4375 10.796875 C 10.71875 13.460938 6.800781 14.796875 1.6875 14.796875 Z M 18.640625 -54.234375 C 18.640625 -52.046875 17.929688 -50.328125 16.515625 -49.078125 C 15.109375 -47.828125 13.441406 -47.203125 11.515625 -47.203125 C 9.597656 -47.203125 7.929688 -47.828125 6.515625 -49.078125 C 5.109375 -50.328125 4.40625 -52.046875 4.40625 -54.234375 C 4.40625 -56.421875 5.109375 -58.140625 6.515625 -59.390625 C 7.929688 -60.648438 9.597656 -61.28125 11.515625 -61.28125 C 13.441406 -61.28125 15.109375 -60.648438 16.515625 -59.390625 C 17.929688 -58.140625 18.640625 -56.421875 18.640625 -54.234375 Z M 18.640625 -54.234375 "/></g></g></g><g fill="#ff8400" fill-opacity="1"><g transform="translate(249.136092, 249.982704)"><g><path d="M 44.953125 -21.125 C 44.953125 -17.8125 44.472656 -14.78125 43.515625 -12.03125 C 42.554688 -9.289062 41.171875 -6.945312 39.359375 -5 C 37.546875 -3.050781 35.375 -1.539062 32.84375 -0.46875 C 30.3125 0.59375 27.46875 1.125 24.3125 1.125 C 21.226562 1.125 18.414062 0.59375 15.875 -0.46875 C 13.34375 -1.539062 11.171875 -3.050781 9.359375 -5 C 7.546875 -6.945312 6.128906 -9.289062 5.109375 -12.03125 C 4.097656 -14.78125 3.59375 -17.8125 3.59375 -21.125 C 3.59375 -24.425781 4.113281 -27.4375 5.15625 -30.15625 C 6.195312 -32.875 7.632812 -35.191406 9.46875 -37.109375 C 11.3125 -39.035156 13.5 -40.53125 16.03125 -41.59375 C 18.570312 -42.664062 21.332031 -43.203125 24.3125 -43.203125 C 27.351562 -43.203125 30.140625 -42.664062 32.671875 -41.59375 C 35.210938 -40.53125 37.390625 -39.035156 39.203125 -37.109375 C 41.015625 -35.191406 42.425781 -32.875 43.4375 -30.15625 C 44.445312 -27.4375 44.953125 -24.425781 44.953125 -21.125 Z M 32.796875 -21.125 C 32.796875 -24.800781 32.0625 -27.691406 30.59375 -29.796875 C 29.132812 -31.898438 27.039062 -32.953125 24.3125 -32.953125 C 21.59375 -32.953125 19.488281 -31.898438 18 -29.796875 C 16.507812 -27.691406 15.765625 -24.800781 15.765625 -21.125 C 15.765625 -17.4375 16.507812 -14.515625 18 -12.359375 C 19.488281 -10.203125 21.59375 -9.125 24.3125 -9.125 C 27.039062 -9.125 29.132812 -10.203125 30.59375 -12.359375 C 32.0625 -14.515625 32.796875 -17.4375 32.796875 -21.125 Z M 32.796875 -21.125 "/></g></g></g><g fill="#ff8400" fill-opacity="1"><g transform="translate(297.691379, 249.982704)"><g><path d="M 25.515625 -40.875 C 23.441406 -38.15625 21.226562 -35.195312 18.875 -32 C 16.53125 -28.800781 14.554688 -25.519531 12.953125 -22.15625 L 25.515625 -22.15625 Z M 37.203125 -55.4375 L 37.203125 -22.15625 L 43.125 -22.15625 L 43.125 -12.40625 L 37.203125 -12.40625 L 37.203125 0 L 25.515625 0 L 25.515625 -12.40625 L 1.59375 -12.40625 L 1.59375 -21.125 C 2.769531 -23.46875 4.238281 -26.117188 6 -29.078125 C 7.757812 -32.035156 9.71875 -35.070312 11.875 -38.1875 C 14.039062 -41.3125 16.320312 -44.367188 18.71875 -47.359375 C 21.113281 -50.347656 23.515625 -53.039062 25.921875 -55.4375 Z M 37.203125 -55.4375 "/></g></g></g><g fill="#2c479e" fill-opacity="0.302"><g transform="translate(37.523084, 189.924151)"><g><path d="M 31.6875 1.125 C 22.664062 1.125 15.796875 -1.378906 11.078125 -6.390625 C 6.359375 -11.410156 4 -18.535156 4 -27.765625 C 4 -32.347656 4.71875 -36.4375 6.15625 -40.03125 C 7.59375 -43.632812 9.566406 -46.675781 12.078125 -49.15625 C 14.585938 -51.632812 17.570312 -53.515625 21.03125 -54.796875 C 24.5 -56.078125 28.257812 -56.71875 32.3125 -56.71875 C 34.664062 -56.71875 36.800781 -56.546875 38.71875 -56.203125 C 40.632812 -55.859375 42.3125 -55.457031 43.75 -55 C 45.195312 -54.539062 46.398438 -54.070312 47.359375 -53.59375 C 48.316406 -53.113281 49.007812 -52.742188 49.4375 -52.484375 L 45.84375 -42.40625 C 44.132812 -43.3125 42.144531 -44.082031 39.875 -44.71875 C 37.613281 -45.363281 35.039062 -45.6875 32.15625 -45.6875 C 30.238281 -45.6875 28.359375 -45.363281 26.515625 -44.71875 C 24.679688 -44.082031 23.054688 -43.054688 21.640625 -41.640625 C 20.222656 -40.222656 19.085938 -38.394531 18.234375 -36.15625 C 17.378906 -33.914062 16.953125 -31.195312 16.953125 -28 C 16.953125 -25.4375 17.234375 -23.046875 17.796875 -20.828125 C 18.359375 -18.617188 19.265625 -16.710938 20.515625 -15.109375 C 21.773438 -13.515625 23.414062 -12.25 25.4375 -11.3125 C 27.46875 -10.382812 29.921875 -9.921875 32.796875 -9.921875 C 34.609375 -9.921875 36.234375 -10.023438 37.671875 -10.234375 C 39.117188 -10.453125 40.398438 -10.707031 41.515625 -11 C 42.640625 -11.289062 43.628906 -11.625 44.484375 -12 C 45.335938 -12.375 46.109375 -12.722656 46.796875 -13.046875 L 50.234375 -3.046875 C 48.472656 -1.972656 45.992188 -1.007812 42.796875 -0.15625 C 39.597656 0.695312 35.894531 1.125 31.6875 1.125 Z M 31.6875 1.125 "/></g></g></g><g fill="#2c479e" fill-opacity="0.302"><g transform="translate(89.358054, 189.924151)"><g><path d="M 22.40625 0.796875 C 18.9375 0.742188 16.117188 0.375 13.953125 -0.3125 C 11.796875 -1.007812 10.085938 -1.984375 8.828125 -3.234375 C 7.578125 -4.492188 6.722656 -6.015625 6.265625 -7.796875 C 5.816406 -9.585938 5.59375 -11.601562 5.59375 -13.84375 L 5.59375 -60.15625 L 17.515625 -62.078125 L 17.515625 -16.234375 C 17.515625 -15.171875 17.59375 -14.210938 17.75 -13.359375 C 17.914062 -12.503906 18.222656 -11.78125 18.671875 -11.1875 C 19.128906 -10.601562 19.785156 -10.125 20.640625 -9.75 C 21.492188 -9.382812 22.640625 -9.148438 24.078125 -9.046875 Z M 22.40625 0.796875 "/></g></g></g><g fill="#2c479e" fill-opacity="0.302"><g transform="translate(114.635602, 189.924151)"><g><path d="M 21.6875 -8.3125 C 22.851562 -8.3125 23.96875 -8.335938 25.03125 -8.390625 C 26.101562 -8.453125 26.957031 -8.535156 27.59375 -8.640625 L 27.59375 -17.6875 C 27.113281 -17.789062 26.394531 -17.894531 25.4375 -18 C 24.476562 -18.101562 23.597656 -18.15625 22.796875 -18.15625 C 21.679688 -18.15625 20.628906 -18.085938 19.640625 -17.953125 C 18.648438 -17.828125 17.78125 -17.578125 17.03125 -17.203125 C 16.289062 -16.828125 15.707031 -16.316406 15.28125 -15.671875 C 14.851562 -15.035156 14.640625 -14.238281 14.640625 -13.28125 C 14.640625 -11.414062 15.265625 -10.117188 16.515625 -9.390625 C 17.773438 -8.671875 19.5 -8.3125 21.6875 -8.3125 Z M 20.71875 -43.203125 C 24.238281 -43.203125 27.171875 -42.800781 29.515625 -42 C 31.867188 -41.195312 33.75 -40.046875 35.15625 -38.546875 C 36.570312 -37.054688 37.570312 -35.242188 38.15625 -33.109375 C 38.75 -30.984375 39.046875 -28.613281 39.046875 -26 L 39.046875 -1.203125 C 37.335938 -0.828125 34.960938 -0.390625 31.921875 0.109375 C 28.878906 0.617188 25.195312 0.875 20.875 0.875 C 18.15625 0.875 15.6875 0.632812 13.46875 0.15625 C 11.257812 -0.320312 9.351562 -1.109375 7.75 -2.203125 C 6.15625 -3.296875 4.929688 -4.722656 4.078125 -6.484375 C 3.222656 -8.242188 2.796875 -10.398438 2.796875 -12.953125 C 2.796875 -15.410156 3.289062 -17.492188 4.28125 -19.203125 C 5.269531 -20.910156 6.585938 -22.269531 8.234375 -23.28125 C 9.890625 -24.289062 11.785156 -25.019531 13.921875 -25.46875 C 16.054688 -25.925781 18.269531 -26.15625 20.5625 -26.15625 C 22.101562 -26.15625 23.472656 -26.085938 24.671875 -25.953125 C 25.878906 -25.828125 26.851562 -25.65625 27.59375 -25.4375 L 27.59375 -26.5625 C 27.59375 -28.582031 26.976562 -30.207031 25.75 -31.4375 C 24.53125 -32.664062 22.398438 -33.28125 19.359375 -33.28125 C 17.328125 -33.28125 15.328125 -33.132812 13.359375 -32.84375 C 11.390625 -32.550781 9.679688 -32.132812 8.234375 -31.59375 L 6.71875 -41.203125 C 7.414062 -41.410156 8.28125 -41.632812 9.3125 -41.875 C 10.351562 -42.113281 11.488281 -42.328125 12.71875 -42.515625 C 13.945312 -42.703125 15.238281 -42.863281 16.59375 -43 C 17.957031 -43.132812 19.332031 -43.203125 20.71875 -43.203125 Z M 20.71875 -43.203125 "/></g></g></g><g fill="#2c479e" fill-opacity="0.302"><g transform="translate(158.871306, 189.924151)"><g><path d="M 17.6875 -8.5625 C 19.863281 -8.5625 21.40625 -8.773438 22.3125 -9.203125 C 23.226562 -9.628906 23.6875 -10.457031 23.6875 -11.6875 C 23.6875 -12.644531 23.097656 -13.484375 21.921875 -14.203125 C 20.742188 -14.921875 18.957031 -15.734375 16.5625 -16.640625 C 14.695312 -17.335938 13.003906 -18.054688 11.484375 -18.796875 C 9.960938 -19.546875 8.664062 -20.441406 7.59375 -21.484375 C 6.53125 -22.523438 5.703125 -23.765625 5.109375 -25.203125 C 4.523438 -26.640625 4.234375 -28.375 4.234375 -30.40625 C 4.234375 -34.34375 5.703125 -37.457031 8.640625 -39.75 C 11.578125 -42.050781 15.601562 -43.203125 20.71875 -43.203125 C 23.28125 -43.203125 25.734375 -42.972656 28.078125 -42.515625 C 30.421875 -42.066406 32.289062 -41.578125 33.6875 -41.046875 L 31.59375 -31.765625 C 30.207031 -32.242188 28.703125 -32.664062 27.078125 -33.03125 C 25.453125 -33.40625 23.625 -33.59375 21.59375 -33.59375 C 17.863281 -33.59375 16 -32.554688 16 -30.484375 C 16 -30.003906 16.078125 -29.578125 16.234375 -29.203125 C 16.398438 -28.828125 16.722656 -28.460938 17.203125 -28.109375 C 17.679688 -27.765625 18.332031 -27.394531 19.15625 -27 C 19.988281 -26.601562 21.039062 -26.164062 22.3125 -25.6875 C 24.925781 -24.71875 27.085938 -23.765625 28.796875 -22.828125 C 30.503906 -21.898438 31.847656 -20.890625 32.828125 -19.796875 C 33.816406 -18.703125 34.507812 -17.488281 34.90625 -16.15625 C 35.3125 -14.820312 35.515625 -13.273438 35.515625 -11.515625 C 35.515625 -7.359375 33.953125 -4.210938 30.828125 -2.078125 C 27.710938 0.0546875 23.300781 1.125 17.59375 1.125 C 13.863281 1.125 10.757812 0.800781 8.28125 0.15625 C 5.800781 -0.476562 4.082031 -1.007812 3.125 -1.4375 L 5.125 -11.125 C 7.144531 -10.320312 9.222656 -9.691406 11.359375 -9.234375 C 13.492188 -8.785156 15.601562 -8.5625 17.6875 -8.5625 Z M 17.6875 -8.5625 "/></g></g></g><g fill="#2c479e" fill-opacity="0.302"><g transform="translate(197.667541, 189.924151)"><g><path d="M 17.6875 -8.5625 C 19.863281 -8.5625 21.40625 -8.773438 22.3125 -9.203125 C 23.226562 -9.628906 23.6875 -10.457031 23.6875 -11.6875 C 23.6875 -12.644531 23.097656 -13.484375 21.921875 -14.203125 C 20.742188 -14.921875 18.957031 -15.734375 16.5625 -16.640625 C 14.695312 -17.335938 13.003906 -18.054688 11.484375 -18.796875 C 9.960938 -19.546875 8.664062 -20.441406 7.59375 -21.484375 C 6.53125 -22.523438 5.703125 -23.765625 5.109375 -25.203125 C 4.523438 -26.640625 4.234375 -28.375 4.234375 -30.40625 C 4.234375 -34.34375 5.703125 -37.457031 8.640625 -39.75 C 11.578125 -42.050781 15.601562 -43.203125 20.71875 -43.203125 C 23.28125 -43.203125 25.734375 -42.972656 28.078125 -42.515625 C 30.421875 -42.066406 32.289062 -41.578125 33.6875 -41.046875 L 31.59375 -31.765625 C 30.207031 -32.242188 28.703125 -32.664062 27.078125 -33.03125 C 25.453125 -33.40625 23.625 -33.59375 21.59375 -33.59375 C 17.863281 -33.59375 16 -32.554688 16 -30.484375 C 16 -30.003906 16.078125 -29.578125 16.234375 -29.203125 C 16.398438 -28.828125 16.722656 -28.460938 17.203125 -28.109375 C 17.679688 -27.765625 18.332031 -27.394531 19.15625 -27 C 19.988281 -26.601562 21.039062 -26.164062 22.3125 -25.6875 C 24.925781 -24.71875 27.085938 -23.765625 28.796875 -22.828125 C 30.503906 -21.898438 31.847656 -20.890625 32.828125 -19.796875 C 33.816406 -18.703125 34.507812 -17.488281 34.90625 -16.15625 C 35.3125 -14.820312 35.515625 -13.273438 35.515625 -11.515625 C 35.515625 -7.359375 33.953125 -4.210938 30.828125 -2.078125 C 27.710938 0.0546875 23.300781 1.125 17.59375 1.125 C 13.863281 1.125 10.757812 0.800781 8.28125 0.15625 C 5.800781 -0.476562 4.082031 -1.007812 3.125 -1.4375 L 5.125 -11.125 C 7.144531 -10.320312 9.222656 -9.691406 11.359375 -9.234375 C 13.492188 -8.785156 15.601562 -8.5625 17.6875 -8.5625 Z M 17.6875 -8.5625 "/></g></g></g><g fill="#2c479e" fill-opacity="0.502"><g transform="translate(34.694651, 187.095713)"><g><path d="M 31.6875 1.125 C 22.664062 1.125 15.796875 -1.378906 11.078125 -6.390625 C 6.359375 -11.410156 4 -18.535156 4 -27.765625 C 4 -32.347656 4.71875 -36.4375 6.15625 -40.03125 C 7.59375 -43.632812 9.566406 -46.675781 12.078125 -49.15625 C 14.585938 -51.632812 17.570312 -53.515625 21.03125 -54.796875 C 24.5 -56.078125 28.257812 -56.71875 32.3125 -56.71875 C 34.664062 -56.71875 36.800781 -56.546875 38.71875 -56.203125 C 40.632812 -55.859375 42.3125 -55.457031 43.75 -55 C 45.195312 -54.539062 46.398438 -54.070312 47.359375 -53.59375 C 48.316406 -53.113281 49.007812 -52.742188 49.4375 -52.484375 L 45.84375 -42.40625 C 44.132812 -43.3125 42.144531 -44.082031 39.875 -44.71875 C 37.613281 -45.363281 35.039062 -45.6875 32.15625 -45.6875 C 30.238281 -45.6875 28.359375 -45.363281 26.515625 -44.71875 C 24.679688 -44.082031 23.054688 -43.054688 21.640625 -41.640625 C 20.222656 -40.222656 19.085938 -38.394531 18.234375 -36.15625 C 17.378906 -33.914062 16.953125 -31.195312 16.953125 -28 C 16.953125 -25.4375 17.234375 -23.046875 17.796875 -20.828125 C 18.359375 -18.617188 19.265625 -16.710938 20.515625 -15.109375 C 21.773438 -13.515625 23.414062 -12.25 25.4375 -11.3125 C 27.46875 -10.382812 29.921875 -9.921875 32.796875 -9.921875 C 34.609375 -9.921875 36.234375 -10.023438 37.671875 -10.234375 C 39.117188 -10.453125 40.398438 -10.707031 41.515625 -11 C 42.640625 -11.289062 43.628906 -11.625 44.484375 -12 C 45.335938 -12.375 46.109375 -12.722656 46.796875 -13.046875 L 50.234375 -3.046875 C 48.472656 -1.972656 45.992188 -1.007812 42.796875 -0.15625 C 39.597656 0.695312 35.894531 1.125 31.6875 1.125 Z M 31.6875 1.125 "/></g></g></g><g fill="#2c479e" fill-opacity="0.502"><g transform="translate(86.52962, 187.095713)"><g><path d="M 22.40625 0.796875 C 18.9375 0.742188 16.117188 0.375 13.953125 -0.3125 C 11.796875 -1.007812 10.085938 -1.984375 8.828125 -3.234375 C 7.578125 -4.492188 6.722656 -6.015625 6.265625 -7.796875 C 5.816406 -9.585938 5.59375 -11.601562 5.59375 -13.84375 L 5.59375 -60.15625 L 17.515625 -62.078125 L 17.515625 -16.234375 C 17.515625 -15.171875 17.59375 -14.210938 17.75 -13.359375 C 17.914062 -12.503906 18.222656 -11.78125 18.671875 -11.1875 C 19.128906 -10.601562 19.785156 -10.125 20.640625 -9.75 C 21.492188 -9.382812 22.640625 -9.148438 24.078125 -9.046875 Z M 22.40625 0.796875 "/></g></g></g><g fill="#2c479e" fill-opacity="0.502"><g transform="translate(111.807168, 187.095713)"><g><path d="M 21.6875 -8.3125 C 22.851562 -8.3125 23.96875 -8.335938 25.03125 -8.390625 C 26.101562 -8.453125 26.957031 -8.535156 27.59375 -8.640625 L 27.59375 -17.6875 C 27.113281 -17.789062 26.394531 -17.894531 25.4375 -18 C 24.476562 -18.101562 23.597656 -18.15625 22.796875 -18.15625 C 21.679688 -18.15625 20.628906 -18.085938 19.640625 -17.953125 C 18.648438 -17.828125 17.78125 -17.578125 17.03125 -17.203125 C 16.289062 -16.828125 15.707031 -16.316406 15.28125 -15.671875 C 14.851562 -15.035156 14.640625 -14.238281 14.640625 -13.28125 C 14.640625 -11.414062 15.265625 -10.117188 16.515625 -9.390625 C 17.773438 -8.671875 19.5 -8.3125 21.6875 -8.3125 Z M 20.71875 -43.203125 C 24.238281 -43.203125 27.171875 -42.800781 29.515625 -42 C 31.867188 -41.195312 33.75 -40.046875 35.15625 -38.546875 C 36.570312 -37.054688 37.570312 -35.242188 38.15625 -33.109375 C 38.75 -30.984375 39.046875 -28.613281 39.046875 -26 L 39.046875 -1.203125 C 37.335938 -0.828125 34.960938 -0.390625 31.921875 0.109375 C 28.878906 0.617188 25.195312 0.875 20.875 0.875 C 18.15625 0.875 15.6875 0.632812 13.46875 0.15625 C 11.257812 -0.320312 9.351562 -1.109375 7.75 -2.203125 C 6.15625 -3.296875 4.929688 -4.722656 4.078125 -6.484375 C 3.222656 -8.242188 2.796875 -10.398438 2.796875 -12.953125 C 2.796875 -15.410156 3.289062 -17.492188 4.28125 -19.203125 C 5.269531 -20.910156 6.585938 -22.269531 8.234375 -23.28125 C 9.890625 -24.289062 11.785156 -25.019531 13.921875 -25.46875 C 16.054688 -25.925781 18.269531 -26.15625 20.5625 -26.15625 C 22.101562 -26.15625 23.472656 -26.085938 24.671875 -25.953125 C 25.878906 -25.828125 26.851562 -25.65625 27.59375 -25.4375 L 27.59375 -26.5625 C 27.59375 -28.582031 26.976562 -30.207031 25.75 -31.4375 C 24.53125 -32.664062 22.398438 -33.28125 19.359375 -33.28125 C 17.328125 -33.28125 15.328125 -33.132812 13.359375 -32.84375 C 11.390625 -32.550781 9.679688 -32.132812 8.234375 -31.59375 L 6.71875 -41.203125 C 7.414062 -41.410156 8.28125 -41.632812 9.3125 -41.875 C 10.351562 -42.113281 11.488281 -42.328125 12.71875 -42.515625 C 13.945312 -42.703125 15.238281 -42.863281 16.59375 -43 C 17.957031 -43.132812 19.332031 -43.203125 20.71875 -43.203125 Z M 20.71875 -43.203125 "/></g></g></g><g fill="#2c479e" fill-opacity="0.502"><g transform="translate(156.042872, 187.095713)"><g><path d="M 17.6875 -8.5625 C 19.863281 -8.5625 21.40625 -8.773438 22.3125 -9.203125 C 23.226562 -9.628906 23.6875 -10.457031 23.6875 -11.6875 C 23.6875 -12.644531 23.097656 -13.484375 21.921875 -14.203125 C 20.742188 -14.921875 18.957031 -15.734375 16.5625 -16.640625 C 14.695312 -17.335938 13.003906 -18.054688 11.484375 -18.796875 C 9.960938 -19.546875 8.664062 -20.441406 7.59375 -21.484375 C 6.53125 -22.523438 5.703125 -23.765625 5.109375 -25.203125 C 4.523438 -26.640625 4.234375 -28.375 4.234375 -30.40625 C 4.234375 -34.34375 5.703125 -37.457031 8.640625 -39.75 C 11.578125 -42.050781 15.601562 -43.203125 20.71875 -43.203125 C 23.28125 -43.203125 25.734375 -42.972656 28.078125 -42.515625 C 30.421875 -42.066406 32.289062 -41.578125 33.6875 -41.046875 L 31.59375 -31.765625 C 30.207031 -32.242188 28.703125 -32.664062 27.078125 -33.03125 C 25.453125 -33.40625 23.625 -33.59375 21.59375 -33.59375 C 17.863281 -33.59375 16 -32.554688 16 -30.484375 C 16 -30.003906 16.078125 -29.578125 16.234375 -29.203125 C 16.398438 -28.828125 16.722656 -28.460938 17.203125 -28.109375 C 17.679688 -27.765625 18.332031 -27.394531 19.15625 -27 C 19.988281 -26.601562 21.039062 -26.164062 22.3125 -25.6875 C 24.925781 -24.71875 27.085938 -23.765625 28.796875 -22.828125 C 30.503906 -21.898438 31.847656 -20.890625 32.828125 -19.796875 C 33.816406 -18.703125 34.507812 -17.488281 34.90625 -16.15625 C 35.3125 -14.820312 35.515625 -13.273438 35.515625 -11.515625 C 35.515625 -7.359375 33.953125 -4.210938 30.828125 -2.078125 C 27.710938 0.0546875 23.300781 1.125 17.59375 1.125 C 13.863281 1.125 10.757812 0.800781 8.28125 0.15625 C 5.800781 -0.476562 4.082031 -1.007812 3.125 -1.4375 L 5.125 -11.125 C 7.144531 -10.320312 9.222656 -9.691406 11.359375 -9.234375 C 13.492188 -8.785156 15.601562 -8.5625 17.6875 -8.5625 Z M 17.6875 -8.5625 "/></g></g></g><g fill="#2c479e" fill-opacity="0.502"><g transform="translate(194.839107, 187.095713)"><g><path d="M 17.6875 -8.5625 C 19.863281 -8.5625 21.40625 -8.773438 22.3125 -9.203125 C 23.226562 -9.628906 23.6875 -10.457031 23.6875 -11.6875 C 23.6875 -12.644531 23.097656 -13.484375 21.921875 -14.203125 C 20.742188 -14.921875 18.957031 -15.734375 16.5625 -16.640625 C 14.695312 -17.335938 13.003906 -18.054688 11.484375 -18.796875 C 9.960938 -19.546875 8.664062 -20.441406 7.59375 -21.484375 C 6.53125 -22.523438 5.703125 -23.765625 5.109375 -25.203125 C 4.523438 -26.640625 4.234375 -28.375 4.234375 -30.40625 C 4.234375 -34.34375 5.703125 -37.457031 8.640625 -39.75 C 11.578125 -42.050781 15.601562 -43.203125 20.71875 -43.203125 C 23.28125 -43.203125 25.734375 -42.972656 28.078125 -42.515625 C 30.421875 -42.066406 32.289062 -41.578125 33.6875 -41.046875 L 31.59375 -31.765625 C 30.207031 -32.242188 28.703125 -32.664062 27.078125 -33.03125 C 25.453125 -33.40625 23.625 -33.59375 21.59375 -33.59375 C 17.863281 -33.59375 16 -32.554688 16 -30.484375 C 16 -30.003906 16.078125 -29.578125 16.234375 -29.203125 C 16.398438 -28.828125 16.722656 -28.460938 17.203125 -28.109375 C 17.679688 -27.765625 18.332031 -27.394531 19.15625 -27 C 19.988281 -26.601562 21.039062 -26.164062 22.3125 -25.6875 C 24.925781 -24.71875 27.085938 -23.765625 28.796875 -22.828125 C 30.503906 -21.898438 31.847656 -20.890625 32.828125 -19.796875 C 33.816406 -18.703125 34.507812 -17.488281 34.90625 -16.15625 C 35.3125 -14.820312 35.515625 -13.273438 35.515625 -11.515625 C 35.515625 -7.359375 33.953125 -4.210938 30.828125 -2.078125 C 27.710938 0.0546875 23.300781 1.125 17.59375 1.125 C 13.863281 1.125 10.757812 0.800781 8.28125 0.15625 C 5.800781 -0.476562 4.082031 -1.007812 3.125 -1.4375 L 5.125 -11.125 C 7.144531 -10.320312 9.222656 -9.691406 11.359375 -9.234375 C 13.492188 -8.785156 15.601562 -8.5625 17.6875 -8.5625 Z M 17.6875 -8.5625 "/></g></g></g><g fill="#2c479e" fill-opacity="1"><g transform="translate(31.866213, 184.267274)"><g><path d="M 31.6875 1.125 C 22.664062 1.125 15.796875 -1.378906 11.078125 -6.390625 C 6.359375 -11.410156 4 -18.535156 4 -27.765625 C 4 -32.347656 4.71875 -36.4375 6.15625 -40.03125 C 7.59375 -43.632812 9.566406 -46.675781 12.078125 -49.15625 C 14.585938 -51.632812 17.570312 -53.515625 21.03125 -54.796875 C 24.5 -56.078125 28.257812 -56.71875 32.3125 -56.71875 C 34.664062 -56.71875 36.800781 -56.546875 38.71875 -56.203125 C 40.632812 -55.859375 42.3125 -55.457031 43.75 -55 C 45.195312 -54.539062 46.398438 -54.070312 47.359375 -53.59375 C 48.316406 -53.113281 49.007812 -52.742188 49.4375 -52.484375 L 45.84375 -42.40625 C 44.132812 -43.3125 42.144531 -44.082031 39.875 -44.71875 C 37.613281 -45.363281 35.039062 -45.6875 32.15625 -45.6875 C 30.238281 -45.6875 28.359375 -45.363281 26.515625 -44.71875 C 24.679688 -44.082031 23.054688 -43.054688 21.640625 -41.640625 C 20.222656 -40.222656 19.085938 -38.394531 18.234375 -36.15625 C 17.378906 -33.914062 16.953125 -31.195312 16.953125 -28 C 16.953125 -25.4375 17.234375 -23.046875 17.796875 -20.828125 C 18.359375 -18.617188 19.265625 -16.710938 20.515625 -15.109375 C 21.773438 -13.515625 23.414062 -12.25 25.4375 -11.3125 C 27.46875 -10.382812 29.921875 -9.921875 32.796875 -9.921875 C 34.609375 -9.921875 36.234375 -10.023438 37.671875 -10.234375 C 39.117188 -10.453125 40.398438 -10.707031 41.515625 -11 C 42.640625 -11.289062 43.628906 -11.625 44.484375 -12 C 45.335938 -12.375 46.109375 -12.722656 46.796875 -13.046875 L 50.234375 -3.046875 C 48.472656 -1.972656 45.992188 -1.007812 42.796875 -0.15625 C 39.597656 0.695312 35.894531 1.125 31.6875 1.125 Z M 31.6875 1.125 "/></g></g></g><g fill="#2c479e" fill-opacity="1"><g transform="translate(83.701183, 184.267274)"><g><path d="M 22.40625 0.796875 C 18.9375 0.742188 16.117188 0.375 13.953125 -0.3125 C 11.796875 -1.007812 10.085938 -1.984375 8.828125 -3.234375 C 7.578125 -4.492188 6.722656 -6.015625 6.265625 -7.796875 C 5.816406 -9.585938 5.59375 -11.601562 5.59375 -13.84375 L 5.59375 -60.15625 L 17.515625 -62.078125 L 17.515625 -16.234375 C 17.515625 -15.171875 17.59375 -14.210938 17.75 -13.359375 C 17.914062 -12.503906 18.222656 -11.78125 18.671875 -11.1875 C 19.128906 -10.601562 19.785156 -10.125 20.640625 -9.75 C 21.492188 -9.382812 22.640625 -9.148438 24.078125 -9.046875 Z M 22.40625 0.796875 "/></g></g></g><g fill="#2c479e" fill-opacity="1"><g transform="translate(108.978731, 184.267274)"><g><path d="M 21.6875 -8.3125 C 22.851562 -8.3125 23.96875 -8.335938 25.03125 -8.390625 C 26.101562 -8.453125 26.957031 -8.535156 27.59375 -8.640625 L 27.59375 -17.6875 C 27.113281 -17.789062 26.394531 -17.894531 25.4375 -18 C 24.476562 -18.101562 23.597656 -18.15625 22.796875 -18.15625 C 21.679688 -18.15625 20.628906 -18.085938 19.640625 -17.953125 C 18.648438 -17.828125 17.78125 -17.578125 17.03125 -17.203125 C 16.289062 -16.828125 15.707031 -16.316406 15.28125 -15.671875 C 14.851562 -15.035156 14.640625 -14.238281 14.640625 -13.28125 C 14.640625 -11.414062 15.265625 -10.117188 16.515625 -9.390625 C 17.773438 -8.671875 19.5 -8.3125 21.6875 -8.3125 Z M 20.71875 -43.203125 C 24.238281 -43.203125 27.171875 -42.800781 29.515625 -42 C 31.867188 -41.195312 33.75 -40.046875 35.15625 -38.546875 C 36.570312 -37.054688 37.570312 -35.242188 38.15625 -33.109375 C 38.75 -30.984375 39.046875 -28.613281 39.046875 -26 L 39.046875 -1.203125 C 37.335938 -0.828125 34.960938 -0.390625 31.921875 0.109375 C 28.878906 0.617188 25.195312 0.875 20.875 0.875 C 18.15625 0.875 15.6875 0.632812 13.46875 0.15625 C 11.257812 -0.320312 9.351562 -1.109375 7.75 -2.203125 C 6.15625 -3.296875 4.929688 -4.722656 4.078125 -6.484375 C 3.222656 -8.242188 2.796875 -10.398438 2.796875 -12.953125 C 2.796875 -15.410156 3.289062 -17.492188 4.28125 -19.203125 C 5.269531 -20.910156 6.585938 -22.269531 8.234375 -23.28125 C 9.890625 -24.289062 11.785156 -25.019531 13.921875 -25.46875 C 16.054688 -25.925781 18.269531 -26.15625 20.5625 -26.15625 C 22.101562 -26.15625 23.472656 -26.085938 24.671875 -25.953125 C 25.878906 -25.828125 26.851562 -25.65625 27.59375 -25.4375 L 27.59375 -26.5625 C 27.59375 -28.582031 26.976562 -30.207031 25.75 -31.4375 C 24.53125 -32.664062 22.398438 -33.28125 19.359375 -33.28125 C 17.328125 -33.28125 15.328125 -33.132812 13.359375 -32.84375 C 11.390625 -32.550781 9.679688 -32.132812 8.234375 -31.59375 L 6.71875 -41.203125 C 7.414062 -41.410156 8.28125 -41.632812 9.3125 -41.875 C 10.351562 -42.113281 11.488281 -42.328125 12.71875 -42.515625 C 13.945312 -42.703125 15.238281 -42.863281 16.59375 -43 C 17.957031 -43.132812 19.332031 -43.203125 20.71875 -43.203125 Z M 20.71875 -43.203125 "/></g></g></g><g fill="#2c479e" fill-opacity="1"><g transform="translate(153.214435, 184.267274)"><g><path d="M 17.6875 -8.5625 C 19.863281 -8.5625 21.40625 -8.773438 22.3125 -9.203125 C 23.226562 -9.628906 23.6875 -10.457031 23.6875 -11.6875 C 23.6875 -12.644531 23.097656 -13.484375 21.921875 -14.203125 C 20.742188 -14.921875 18.957031 -15.734375 16.5625 -16.640625 C 14.695312 -17.335938 13.003906 -18.054688 11.484375 -18.796875 C 9.960938 -19.546875 8.664062 -20.441406 7.59375 -21.484375 C 6.53125 -22.523438 5.703125 -23.765625 5.109375 -25.203125 C 4.523438 -26.640625 4.234375 -28.375 4.234375 -30.40625 C 4.234375 -34.34375 5.703125 -37.457031 8.640625 -39.75 C 11.578125 -42.050781 15.601562 -43.203125 20.71875 -43.203125 C 23.28125 -43.203125 25.734375 -42.972656 28.078125 -42.515625 C 30.421875 -42.066406 32.289062 -41.578125 33.6875 -41.046875 L 31.59375 -31.765625 C 30.207031 -32.242188 28.703125 -32.664062 27.078125 -33.03125 C 25.453125 -33.40625 23.625 -33.59375 21.59375 -33.59375 C 17.863281 -33.59375 16 -32.554688 16 -30.484375 C 16 -30.003906 16.078125 -29.578125 16.234375 -29.203125 C 16.398438 -28.828125 16.722656 -28.460938 17.203125 -28.109375 C 17.679688 -27.765625 18.332031 -27.394531 19.15625 -27 C 19.988281 -26.601562 21.039062 -26.164062 22.3125 -25.6875 C 24.925781 -24.71875 27.085938 -23.765625 28.796875 -22.828125 C 30.503906 -21.898438 31.847656 -20.890625 32.828125 -19.796875 C 33.816406 -18.703125 34.507812 -17.488281 34.90625 -16.15625 C 35.3125 -14.820312 35.515625 -13.273438 35.515625 -11.515625 C 35.515625 -7.359375 33.953125 -4.210938 30.828125 -2.078125 C 27.710938 0.0546875 23.300781 1.125 17.59375 1.125 C 13.863281 1.125 10.757812 0.800781 8.28125 0.15625 C 5.800781 -0.476562 4.082031 -1.007812 3.125 -1.4375 L 5.125 -11.125 C 7.144531 -10.320312 9.222656 -9.691406 11.359375 -9.234375 C 13.492188 -8.785156 15.601562 -8.5625 17.6875 -8.5625 Z M 17.6875 -8.5625 "/></g></g></g><g fill="#2c479e" fill-opacity="1"><g transform="translate(192.01067, 184.267274)"><g><path d="M 17.6875 -8.5625 C 19.863281 -8.5625 21.40625 -8.773438 22.3125 -9.203125 C 23.226562 -9.628906 23.6875 -10.457031 23.6875 -11.6875 C 23.6875 -12.644531 23.097656 -13.484375 21.921875 -14.203125 C 20.742188 -14.921875 18.957031 -15.734375 16.5625 -16.640625 C 14.695312 -17.335938 13.003906 -18.054688 11.484375 -18.796875 C 9.960938 -19.546875 8.664062 -20.441406 7.59375 -21.484375 C 6.53125 -22.523438 5.703125 -23.765625 5.109375 -25.203125 C 4.523438 -26.640625 4.234375 -28.375 4.234375 -30.40625 C 4.234375 -34.34375 5.703125 -37.457031 8.640625 -39.75 C 11.578125 -42.050781 15.601562 -43.203125 20.71875 -43.203125 C 23.28125 -43.203125 25.734375 -42.972656 28.078125 -42.515625 C 30.421875 -42.066406 32.289062 -41.578125 33.6875 -41.046875 L 31.59375 -31.765625 C 30.207031 -32.242188 28.703125 -32.664062 27.078125 -33.03125 C 25.453125 -33.40625 23.625 -33.59375 21.59375 -33.59375 C 17.863281 -33.59375 16 -32.554688 16 -30.484375 C 16 -30.003906 16.078125 -29.578125 16.234375 -29.203125 C 16.398438 -28.828125 16.722656 -28.460938 17.203125 -28.109375 C 17.679688 -27.765625 18.332031 -27.394531 19.15625 -27 C 19.988281 -26.601562 21.039062 -26.164062 22.3125 -25.6875 C 24.925781 -24.71875 27.085938 -23.765625 28.796875 -22.828125 C 30.503906 -21.898438 31.847656 -20.890625 32.828125 -19.796875 C 33.816406 -18.703125 34.507812 -17.488281 34.90625 -16.15625 C 35.3125 -14.820312 35.515625 -13.273438 35.515625 -11.515625 C 35.515625 -7.359375 33.953125 -4.210938 30.828125 -2.078125 C 27.710938 0.0546875 23.300781 1.125 17.59375 1.125 C 13.863281 1.125 10.757812 0.800781 8.28125 0.15625 C 5.800781 -0.476562 4.082031 -1.007812 3.125 -1.4375 L 5.125 -11.125 C 7.144531 -10.320312 9.222656 -9.691406 11.359375 -9.234375 C 13.492188 -8.785156 15.601562 -8.5625 17.6875 -8.5625 Z M 17.6875 -8.5625 "/></g></g></g></svg>